<svg aria-hidden="true" style="position:absolute;width:0;height:0;overflow:hidden" xmlns="http://www.w3.org/2000/svg">
  <defs>
    <symbol id="icon-arrow-left" viewBox="0 0 32 32">
      <path fill="none" stroke="#fff" stroke-width="1.333" stroke-linecap="round" stroke-linejoin="round" style="stroke:var(--color1, #fff)" d="M29.333 16.444H2.666M15.111 4 2.667 16.444l12.444 12.445"/>
    </symbol>
    <symbol id="icon-arrow-right" viewBox="0 0 32 32">
      <path fill="none" stroke="#fff" stroke-width="1.333" stroke-linecap="round" stroke-linejoin="round" style="stroke:var(--color1, #fff)" d="M2.667 16.444h26.667M16.889 28.889l12.444-12.445L16.889 4"/>
    </symbol>
    <symbol id="icon-facebook" viewBox="0 0 32 32">
      <path fill="#fff" style="fill:var(--color1, #fff)" d="M26.067 19.413A.671.671 0 0 1 25.4 20h-2.733a.67.67 0 0 0-.667.667v10.667a.67.67 0 0 0 .667.667h8a1.335 1.335 0 0 0 1.334-1.334V1.334A1.335 1.335 0 0 0 30.667 0H1.334A1.335 1.335 0 0 0 0 1.334v29.333a1.335 1.335 0 0 0 1.334 1.334h14.667a.67.67 0 0 0 .667-.667V20.667a.67.67 0 0 0-.667-.667h-2.667a.665.665 0 0 1-.666-.667v-4a.665.665 0 0 1 .666-.666h2.667a.67.67 0 0 0 .667-.666v-1.747a7.587 7.587 0 0 1 7.586-7.587h1.747a.67.67 0 0 1 .667.666v4a.665.665 0 0 1-.667.666h-1.747a2.257 2.257 0 0 0-2.253 2.253v1.747a.665.665 0 0 0 .667.666h3.24a.668.668 0 0 1 .667.746l-.507 4z"/>
    </symbol>
    <symbol id="icon-instagram" viewBox="0 0 32 32">
      <path fill="#fff" style="fill:var(--color1, #fff)" d="M23.333 0H8.666A8.683 8.683 0 0 0 0 8.666v14.667a8.683 8.683 0 0 0 8.666 8.666h14.667a8.683 8.683 0 0 0 8.666-8.666V8.666A8.683 8.683 0 0 0 23.333 0zM16 23.333a7.332 7.332 0 0 1-1.43-14.526 7.333 7.333 0 1 1 1.431 14.525zm8.667-14.666a1.997 1.997 0 0 1-1.848-1.235 2.006 2.006 0 0 1 .433-2.18 1.998 1.998 0 0 1 3.415 1.415 2 2 0 0 1-2 2z"/>
    </symbol>
    <symbol id="icon-logo" viewBox="0 0 174 32">
      <path fill="#fff" style="fill:var(--color1, #fff)" d="M57.233 9.578c-1.481 0-2.651.385-3.511 1.155s-1.37 2.095-1.53 3.977a177.73 177.73 0 0 0 4.841.06c.83 0 1.64-.005 2.43-.015s1.475-.025 2.056-.045c0-.136 0-.291.015-.45s.015-.33.015-.511c0-1.36-.34-2.394-1.021-3.104s-1.779-1.065-3.294-1.066zm8.101 9.483a8.74 8.74 0 0 1-.3 2.55 4.343 4.343 0 0 1-1.215 2.009c-.59.561-1.409.996-2.457 1.305s-2.394.465-4.035.466c-2.801 0-5.022-.774-6.662-2.321s-2.459-3.913-2.457-7.099c0-1.621.22-3.032.661-4.232a7.797 7.797 0 0 1 1.844-2.956 7.476 7.476 0 0 1 2.893-1.726 11.926 11.926 0 0 1 3.782-.571c2.921 0 4.976.695 6.165 2.086s1.785 3.215 1.786 5.474c0 .601-.01 1.151-.03 1.651s-.041.941-.06 1.32c-.74-.019-1.73-.029-2.971-.03h-7.337c-1.049 0-1.974-.01-2.775-.03.08 1.921.56 3.291 1.44 4.11s2.131 1.229 3.752 1.229c1.62 0 2.72-.295 3.3-.885s.88-1.375.901-2.355c.259.019.549.039.87.06a17.71 17.71 0 0 0 2.071 0l.84-.06zM85.007 17.919v.33a9.105 9.105 0 0 1-.419 2.805 5.389 5.389 0 0 1-1.425 2.266c-.672.637-1.567 1.142-2.687 1.515s-2.5.558-4.141.554c-2.84 0-5.086-.805-6.736-2.415s-2.475-3.976-2.475-7.099c0-3.098.83-5.437 2.49-7.017s3.949-2.371 6.867-2.373c2.664 0 4.731.563 6.201 1.69s2.205 2.912 2.205 5.357c0 .075.005.15.015.224a.57.57 0 0 1-.015.225c-.24-.019-.535-.034-.885-.045s-.714-.016-1.092-.015c-.364 0-.709.005-1.036.015-.329.011-.605.026-.819.045v-.3c-.02-1.2-.375-2.095-1.065-2.685s-1.868-.884-3.535-.879c-1.7 0-3.01.435-3.93 1.305s-1.38 2.345-1.38 4.426c0 2.141.455 3.661 1.365 4.561s2.234 1.35 3.971 1.35c1.638 0 2.809-.325 3.511-.976s1.063-1.506 1.08-2.565v-.3c.259.021.556.036.885.045s.665.015 1.006.015c.379 0 .749 0 1.11-.015s.67-.024.93-.045zM104.715 25h-4.321c.019-1.38.039-2.95.06-4.71s.031-3.781.03-6.061c0-1.42-.315-2.46-.946-3.121s-1.656-.991-3.076-.99c-1.398 0-2.597.4-3.599 1.199s-1.502 2.09-1.502 3.872v3.823a200.015 200.015 0 0 0 .045 4.544c.01.521.015 1.001.015 1.44H87.1c.039-1.38.064-2.79.075-4.232s.016-3.271.015-5.488v-3.792c0-1.27-.005-2.48-.015-3.631l-.03-3.285c-.011-1.04-.026-1.97-.045-2.79h4.381c-.041.98-.061 1.885-.06 2.715s-.009 1.685-.03 2.565a69.538 69.538 0 0 1-.06 3.004l.15.03a5.46 5.46 0 0 1 2.535-2.655c1.13-.571 2.526-.856 4.186-.856 2.02 0 3.606.535 4.756 1.605s1.726 2.686 1.726 4.846c0 1.365-.01 2.457-.03 3.276s-.03 1.679-.03 2.58c0 1.1.01 2.15.03 3.149l.06 2.971zM111.617 25h-4.261a625.65 625.65 0 0 0 .06-9.36 573.188 573.188 0 0 0-.06-8.738h4.261c-.041 1.401-.066 2.771-.075 4.111a782.32 782.32 0 0 0 0 9.766c.01 1.37.035 2.776.075 4.216zm.57-21.368a1.388 1.388 0 0 1-.509 1.081c-.341.303-1.061.457-2.158.461-1.14 0-1.875-.15-2.205-.449a1.403 1.403 0 0 1-.495-1.081 1.271 1.271 0 0 1 .526-1.065c.349-.273 1.074-.41 2.175-.41 1.081 0 1.797.137 2.146.41a1.29 1.29 0 0 1 .524 1.065zM128.124 15.823c0-1.981-.494-3.427-1.483-4.336s-2.263-1.364-3.823-1.365c-1.56 0-2.83.45-3.81 1.35s-1.472 2.35-1.474 4.351c0 2.002.49 3.504 1.47 4.505s2.25 1.502 3.81 1.502c1.6 0 2.885-.505 3.855-1.515s1.455-2.507 1.455-4.491zm4.083-.121a11.554 11.554 0 0 1-.676 4.065 8.613 8.613 0 0 1-1.89 3.061 8.072 8.072 0 0 1-2.956 1.911c-1.239.453-2.55.677-3.87.659a10.732 10.732 0 0 1-3.855-.659 7.955 7.955 0 0 1-2.926-1.911 8.539 8.539 0 0 1-1.861-3.061 11.814 11.814 0 0 1-.659-4.065c0-1.519.23-2.854.689-4.005a7.911 7.911 0 0 1 1.921-2.88 8.044 8.044 0 0 1 2.941-1.741 11.537 11.537 0 0 1 3.75-.586c1.28-.014 2.553.183 3.769.583a8.171 8.171 0 0 1 2.97 1.741 7.98 7.98 0 0 1 1.945 2.88c.47 1.151.705 2.486.706 4.005zM10.848 15.58c0-2.275.345-4.278 1.035-6.007.394-1.002.915-1.95 1.551-2.819a12.365 12.365 0 0 0-2.631-.273 11.484 11.484 0 0 0-3.75.586 8.03 8.03 0 0 0-2.941 1.741 7.911 7.911 0 0 0-1.921 2.88c-.461 1.151-.69 2.486-.689 4.005a11.862 11.862 0 0 0 .659 4.065 8.547 8.547 0 0 0 1.861 3.061 7.947 7.947 0 0 0 2.926 1.911c1.234.454 2.541.678 3.855.659a11.56 11.56 0 0 0 2.816-.33 13.445 13.445 0 0 1-1.775-3.388c-.661-1.813-.991-3.844-.99-6.093z"/>
      <path fill="#fff" style="fill:var(--color1, #fff)" d="M37.801 9.578a11.966 11.966 0 0 0-2.923-4.317 12.208 12.208 0 0 0-4.45-2.607 17.492 17.492 0 0 0-5.642-.876 17.275 17.275 0 0 0-5.62.876 12.038 12.038 0 0 0-4.407 2.607c-.487.459-.93.962-1.326 1.502.384.084.763.188 1.136.314a8.167 8.167 0 0 1 2.969 1.741 7.974 7.974 0 0 1 1.951 2.88c.47 1.151.705 2.486.706 4.005a11.554 11.554 0 0 1-.676 4.065 8.6 8.6 0 0 1-1.891 3.061 8.064 8.064 0 0 1-2.956 1.911 9.967 9.967 0 0 1-1.054.329c.308.421.644.821 1.006 1.197a11.873 11.873 0 0 0 4.384 2.845c1.723.66 3.649.99 5.777.99s4.062-.33 5.799-.99a12.059 12.059 0 0 0 4.429-2.855 12.901 12.901 0 0 0 2.834-4.586c.674-1.813 1.012-3.844 1.012-6.093 0-2.275-.352-4.278-1.057-6.007zM139.226 3.903h3.121c1.622 0 2.629.811 2.629 2.212a1.883 1.883 0 0 1-1.13 1.684c.873.307 1.511.995 1.511 2.199 0 1.548-1.057 2.507-2.826 2.507h-3.306V3.904zm3.072 3.539c1.02 0 1.573-.43 1.573-1.29s-.546-1.29-1.573-1.29h-1.953v2.58h1.953zm.049 4.054c1.253 0 1.892-.528 1.892-1.524s-.639-1.548-1.892-1.548h-2.002v3.072h2.002zM146.758 3.903h5.418v.998h-4.295v2.528h3.489v1.007h-3.489v3.059h4.434v1.008h-5.557V3.902zM155.788 4.901h-2.74v-.998h6.586v.998h-2.731v7.603h-1.118l.002-7.603zM164.635 10.317h-3.823l-.848 2.184h-1.154l3.404-8.598h1.02l3.413 8.601h-1.168l-.844-2.187zm-.381-.995-1.524-3.944-1.535 3.944h3.058z"/>
    </symbol>
    <symbol id="icon-twitter" viewBox="0 0 32 32">
      <path fill="#fff" style="fill:var(--color1, #fff)" d="M31.093 8.587a.66.66 0 0 0 .223-.662.667.667 0 0 0-.491-.498l-1.053-.267a.659.659 0 0 1-.441-.363.671.671 0 0 1 .001-.571l.587-1.187c.056-.115.077-.244.061-.37s-.067-.246-.148-.345a.66.66 0 0 0-.686-.219l-2.667.747a.673.673 0 0 1-.587-.107 6.668 6.668 0 0 0-10.667 5.334v.48a.333.333 0 0 1-.293.334c-3.747.44-7.333-1.467-11.2-5.92a.684.684 0 0 0-.68-.2.661.661 0 0 0-.386.56 10.11 10.11 0 0 0 .613 6.56.33.33 0 0 1-.027.346.333.333 0 0 1-.32.135l-1.493-.293a.669.669 0 0 0-.761.786 6.87 6.87 0 0 0 3.16 5.04.332.332 0 0 1 .137.477.332.332 0 0 1-.137.123l-.707.28c-.086.034-.164.086-.228.152s-.115.145-.148.231a.661.661 0 0 0 .029.536 5.808 5.808 0 0 0 4.266 3.306.331.331 0 0 1 .219.313.335.335 0 0 1-.219.313 14.592 14.592 0 0 1-5.72 1.107.68.68 0 0 0-.267 1.333 26.74 26.74 0 0 0 10.853 2.573 16.77 16.77 0 0 0 9.333-2.667 16.66 16.66 0 0 0 7.413-13.907v-1.16a.678.678 0 0 1 .24-.507l2.187-1.827z"/>
    </symbol>
  </defs>
</svg>
